<?xml version="1.0" encoding="iso-8859-1"?>
<!-- Generator: Adobe Illustrator 19.0.0, SVG Export Plug-In . SVG Version: 6.00 Build 0)  -->
<svg version="1.1" id="Capa_1" xmlns="http://www.w3.org/2000/svg" xmlns:xlink="http://www.w3.org/1999/xlink" x="0px" y="0px"
	 viewBox="0 0 512 512" style="enable-background:new 0 0 512 512;" xml:space="preserve">
<g>
	<g>
		<path d="M497,288.356h-16.32l-52.266-126.423c7.319-0.996,12.964-7.254,12.964-14.846c0-8.284-6.716-15-15-15H297.414
			c-6.165-17.121-22.565-29.397-41.783-29.397c-19.218,0-35.619,12.277-41.784,29.397H85.623c-8.284,0-15,6.716-15,15
			c0,7.592,5.646,13.85,12.964,14.846L31.32,288.356H15c-8.284,0-15,6.716-15,15C0,361.779,47.531,409.31,105.954,409.31
			c58.423,0,105.954-47.531,105.954-105.954c0-8.284-6.716-15-15-15h-16.321l-52.202-126.269h85.462
			c6.165,17.121,22.565,29.397,41.784,29.397c19.218,0,35.618-12.276,41.783-29.397h86.202l-52.202,126.269h-16.321
			c-8.284,0-15,6.716-15,15c0,58.423,47.531,105.954,105.954,105.954C464.47,409.31,512,361.779,512,303.356
			C512,295.072,505.284,288.356,497,288.356z M105.954,379.31c-36.749,0-67.485-26.231-74.467-60.954h148.934
			C173.439,353.079,142.703,379.31,105.954,379.31z M148.125,288.356H63.783l42.171-102.004L148.125,288.356z M255.63,161.484
			c-7.939,0-14.397-6.458-14.397-14.397c0-7.939,6.458-14.397,14.397-14.397c7.938,0,14.397,6.458,14.397,14.397
			S263.569,161.484,255.63,161.484z M406.046,186.352l42.171,102.004h-84.342L406.046,186.352z M406.046,379.31
			c-36.749,0-67.485-26.231-74.467-60.954h148.934C473.531,353.079,442.794,379.31,406.046,379.31z"/>
	</g>
</g>
<g>
</g>
<g>
</g>
<g>
</g>
<g>
</g>
<g>
</g>
<g>
</g>
<g>
</g>
<g>
</g>
<g>
</g>
<g>
</g>
<g>
</g>
<g>
</g>
<g>
</g>
<g>
</g>
<g>
</g>
</svg>
